<svg xmlns="http://www.w3.org/2000/svg" width="1200" height="630" viewBox="0 0 1200 630">
  <rect width="1200" height="630" fill="#f4f2ea"/>
  <g stroke="#c9cbc1" opacity=".45"><path d="M0 105h1200M0 210h1200M0 315h1200M0 420h1200M0 525h1200"/><path d="M200 0v630M400 0v630M600 0v630M800 0v630M1000 0v630"/></g>
  <rect x="66" y="60" width="90" height="90" rx="16" fill="#102018"/>
  <g fill="none" stroke="#f4f2ea" stroke-width="4" stroke-linecap="square"><path d="M82 83h10l14 17M82 105h19M82 127h10l14-17"/><path d="m116 100 14-17h10M120 105h20M116 110l14 17h10"/></g>
  <path d="m111 93 12 12-12 12-12-12z" fill="#b8e068"/><path d="m111 99 6 6-6 6-6-6z" fill="#102018"/>
  <text x="66" y="205" fill="#1d5b46" font-family="monospace" font-size="18" font-weight="700" letter-spacing="4">KERNELLUM RESEARCH</text>
  <text x="66" y="305" fill="#151815" font-family="Georgia, serif" font-size="72" letter-spacing="-2">Models should shape</text>
  <text x="66" y="384" fill="#151815" font-family="Georgia, serif" font-size="72" letter-spacing="-2">the machines that run them.</text>
  <line x1="66" y1="450" x2="1134" y2="450" stroke="#151815"/>
  <text x="66" y="492" fill="#626862" font-family="Arial, Helvetica, sans-serif" font-size="23">AI-native model-to-hardware systems</text>
  <text x="66" y="558" fill="#1d5b46" font-family="monospace" font-size="16" letter-spacing="2">MODEL  /  IR  /  SEARCH  /  RTL  /  PHYSICAL EVIDENCE</text>
  <g transform="translate(880 110)">
    <rect width="254" height="244" fill="#102018"/>
    <text x="22" y="32" fill="#b8e068" font-family="monospace" font-size="11" letter-spacing="2">CURRENT THRESHOLD</text>
    <text x="22" y="100" fill="#f4f2ea" font-family="Georgia, serif" font-size="54">2 lanes</text>
    <text x="22" y="132" fill="#aebbb2" font-family="Arial, Helvetica, sans-serif" font-size="17">ULX3S-85F selected design</text>
    <line x1="22" y1="164" x2="232" y2="164" stroke="#557062"/>
    <text x="22" y="198" fill="#f4f2ea" font-family="Georgia, serif" font-size="35">29.64 MHz</text>
    <text x="22" y="224" fill="#aebbb2" font-family="Arial, Helvetica, sans-serif" font-size="15">post-route Fmax</text>
  </g>
</svg>
